<?xml version="1.0" encoding="utf-8"?>
<!-- Generator: Adobe Illustrator 15.0.3, SVG Export Plug-In . SVG Version: 6.00 Build 0)  -->
<!DOCTYPE svg PUBLIC "-//W3C//DTD SVG 1.1//EN" "http://www.w3.org/Graphics/SVG/1.1/DTD/svg11.dtd">
<svg version="1.1" id="Ebene_1" xmlns="http://www.w3.org/2000/svg" xmlns:xlink="http://www.w3.org/1999/xlink" x="0px" y="0px"
	 width="347px" height="125px" viewBox="0 0 347 125" enable-background="new 0 0 347 125" xml:space="preserve">
<rect x="163.245" y="119.659" fill="#195A98" width="172.313" height="0.713"/>
<rect x="163.763" y="4.182" fill="#195A98" width="172.1" height="0.716"/>
<g>
	<path fill="#195A98" d="M125.416,26.508c-1.038-2.166-1.263-4.694-2.347-6.86c-2.168-6.048-8.892-8.983-14.445-10.834l3.476,3.477
		C115.622,17.706,120.542,23.078,125.416,26.508"/>
	<path fill="#195A98" d="M127.944,28.855c0.452,1.986,1.67,3.792,1.806,5.778c-2.573-7.448-11.239-8.26-14.399-15.303l0.992,4.108
		c2.438,7.99,11.964,9.93,15.573,17.152c-1.128-5.236,0.858-10.698-0.722-15.845c-1.31-4.422-4.966-8.306-9.434-9.613
		C126.545,18.294,126.229,24.115,127.944,28.855"/>
	<path fill="#195A98" d="M77.75,13.915c2.032-0.902,4.47,0.586,6.184-1.311c-0.497-1.352-2.302-1.397-3.655-1.624l-3.25,1.444
		c-0.362,0.18-1.49-0.406-1.311,0.542C76.35,13.373,76.984,13.825,77.75,13.915"/>
	<path fill="#195A98" d="M134.76,60.633c-0.992,2.438-0.586,5.552-2.076,7.674c-0.09-1.218,0.588-2.392,0.678-3.702
		c1.126-8.168-5.96-13-7.584-19.906c-0.09,1.851,0.044,3.612,0.316,5.282c0.406,8.62,6.048,15.618,4.422,24.601
		c1.626-2.121,2.846-4.289,4.786-6.364c6.5-6.771,8.17-18.101,4.424-26.767C140.989,48.761,136.565,54.269,134.76,60.633"/>
	<path fill="#195A98" d="M133.361,41.314c0.134,2.754,0.586,5.506,0.406,8.26c-0.406-1.082-0.496-2.256-0.769-3.386
		c-1.354-6.185-8.622-9.208-11.556-14.398c0.452,1.76,0.768,3.521,1.399,5.19c2.528,7.313,10.112,12.231,11.15,20.178
		c0.676-7.584,6.002-13.632,4.019-21.892c-1.04-4.154-2.755-8.217-5.868-11.377C135.481,28.765,133.585,35.626,133.361,41.314"/>
	<path fill="#195A98" d="M97.791,19.106l-0.315-1.4c-0.36-0.902-1.58-0.45-2.168-0.766c-0.36,0.09-0.225,0.676-0.088,0.901
		C96.392,17.933,96.392,19.918,97.791,19.106"/>
	<path fill="#195A98" d="M25.569,59.1c1.672,18.686,16.432,35.974,34.531,40.714c19.906,5.506,40.084-1.49,52.314-17.65
		c11.06-13.63,12.956-36.652,3.794-51.771c-4.29-8.263-12.504-16.387-20.674-20.358c-13.452-7.54-33.358-6.636-46.269,1.308
		C32.521,21.228,23.313,39.283,25.569,59.1 M27.827,54.766c2.348,0.134,4.966,0.226,7.268-0.091c-0.136,3.114,0.496,6.5,1.488,9.389
		c-0.676-0.767-1.264-2.212-2.482-1.174c-0.451,0.182,0.093,1.174-0.768,0.857c-0.18-0.315-1.128-0.676-1.624-0.226
		c-0.768,1.13-1.22,2.483-0.858,3.928c0.948,0.766,0.272,3.07,1.942,2.572c0.452,0.498,1.038,1.489,1.85,1.536l0.452-0.769
		c0.45,1.218,1.624,1.128,2.256,2.166c1.084-0.54,0.589,0.902,1.219,1.22c0.678,0.406,0.994,1.67,2.031,1.175
		c0.091-0.093,0.272-0.183,0.227-0.318c0.271,0.948,1.038,2.032,2.166,2.258c0.904,0.769,1.49,1.806,2.392,2.393
		c-1.804,1.443-3.655,3.43-5.326,5.189C32.567,76.341,28.323,66.275,27.827,54.766 M72.017,24.115
		c-6.905,0.092-13.315,2.934-18.1,7.584c-1.49-1.624-3.25-3.612-5.056-4.876c6.546-5.822,14.399-8.982,23.155-9.658
		C71.883,19.421,71.883,21.859,72.017,24.115 M61.861,60.813c0.271-0.406-0.316-0.676-0.137-1.174
		c0.542,0.315,0.272,1.31,0.679,1.85c0.18,0.182,0.044,0.498,0.09,0.768l-2.076,2.168c-1.13-2.031-2.482-3.928-3.024-6.184
		l-0.405-0.678c0.496,0.678,1.896-0.046,1.939,1.084c0.542,0.496,1.311-0.271,1.174,0.768
		C60.461,60.228,61.185,60.541,61.861,60.813 M66.827,61.489c0.18,1.04,1.399,1.174,2.076,1.716c1.22,0.406,2.481,1.356,3.882,0.679
		c-0.586,0.226-0.046,0.947-0.227,1.264c-0.09,0.406-0.359,0.992-0.09,1.624c0.227,0.362,0.496,0.362,0.542,0.768
		c-0.405,0.452-1.084,0.046-1.536,0.316c-0.449,0.678-0.449,1.534-0.403,2.392c-3.206-0.496-6.095-1.986-8.578-3.882L66.827,61.489z
		 M63.577,61.039c0.36-0.498,0.855-0.994,0.992-1.624l0.722,0.45C64.569,59.819,64.209,60.768,63.577,61.039 M72.243,89.657
		l-0.542-0.316c-8.893-0.405-16.61-4.197-23.202-9.886c0.768-0.09,1.896,1.49,3.252,0.769c1.49-1.129,3.34-0.452,4.874-1.4
		c0.406-0.948-0.632-0.992-0.632-1.76c4.649,3.476,10.112,6.004,16.16,5.642C72.017,84.961,71.883,87.491,72.243,89.657
		 M47.447,59.549c0.332-1.741-0.183-3.439-0.662-5.01c0.722,0.406,1.354,0.406,2.166,0.227c-1.038,0.09-0.632,1.804-1.172,2.618
		C49.075,58.052,47.663,58.797,47.447,59.549 M50.893,54.766c0.496-0.36,1.354,0.315,1.534-0.542c0.09-1.038-1.58-2.618,0.09-3.16
		c0.725,0.046,1.717-0.137,1.851,0.768c0.362,1.128-0.225,2.754,0.092,3.79l-1.084,0.544c-0.406-0.271-0.632-0.904-1.172-0.857
		c-0.634,0.449,0.224,0.812,0.088,1.31c-0.044,0.36-0.134,0.767-0.088,1.172c-0.362,0.044-0.771-0.271-0.994,0.227
		c0,0.766,0.812,0.947,1.218,1.31c0.769-0.318,0.725-1.536,0.858-2.394l0.768,0.452c0.632,3.384,2.303,6.634,4.422,9.073
		l-6.048,6.272c0-0.45-0.768-0.181-0.313-0.723c0.359-0.226,0.992-0.405,0.945-0.991c0.047-1.13-0.359-2.212-1.082-2.935
		c-0.226-1.58,0-3.43-0.857-4.649c0.224-1.717-0.724-3.204-1.942-4.425c0.496-0.901-0.542-1.354-0.226-2.302
		C49.945,56.436,51.119,56.165,50.893,54.766 M66.285,76.523c0.768,1.262,1.444,2.932,3.16,3.158
		c-4.694-0.769-9.706-3.158-13.679-6.591h-0.315c1.716-1.443,3.432-3.113,4.874-4.876c2.078,2.44,4.966,3.702,7.81,4.65
		c0.542-0.136,1.084-0.226,1.626-0.316c-1.13,0.137-2.031,0.679-2.618,1.626C67.413,75.257,65.833,75.483,66.285,76.523
		 M56.535,42.218c-1.309,0.676-1.716,2.121-3.25,2.346c-0.812,0.406,0.27,1.218-0.769,1.443c-2.166-0.134-2.436,2.438-3.113,3.883
		c0,0.768-0.09,1.582,0.405,2.168l-2.934,0.09c0.678-3.702,1.174-7.448,2.934-10.698c1.084-2.212,2.572-4.288,4.108-6.184
		c1.85,1.716,3.25,3.52,5.326,4.966C58.025,40.365,57.753,42.081,56.535,42.218 M52.113,33.415
		c-4.786,5.057-7.269,11.42-7.721,18.416l0.227,0.316c-2.212-0.183-4.786-0.046-7.132-0.09c0.586-8.849,3.79-16.746,9.523-23.292
		v-0.45C48.455,30.119,50.217,31.879,52.113,33.415 M44.619,54.675c-0.3,0.898-0.312,2.043,0.128,2.923
		c-0.206-0.223-0.458-0.416-0.67-0.576c-1.536-0.134-1.58,1.806-3.024,1.852c-0.994,1.354-1.22,3.114-1.399,4.648
		c-0.542,0-0.272,0.724-0.677,0.994c-0.271-3.114-1.174-6.274-1.399-9.524l-0.227-0.316C39.653,54.991,42.361,54.991,44.619,54.675
		 M42.001,86.724l5.01-5.19c6.771,6.68,15.528,10.244,25.143,10.516l0.09-0.136c-0.406,2.168-0.134,4.561-0.227,6.816l0.316,0.542
		C60.823,98.549,50.577,94.397,42.001,86.724 M71.927,71.105c0.09-0.45,0.948-0.227,1.174-0.858
		c1.038,0.137,1.084-1.174,1.624-1.624c0.723,0.134,1.49-1.22,1.942-0.09c1.038-0.452,1.76,2.074,2.076,0.09
		c0.586,0.181,1.128,1.082,1.714,0.45c0.498-0.316,0.092-0.858-0.09-1.082c0.542,0.27,1.264,1.082,1.852,0.316
		c0.271-0.588,0.677-0.588,1.172-0.858c0.589,0.224,0.318,1.084,0.137,1.49c-0.767,1.082-2.21,1.939-3.61,2.166
		c-0.271,0.496-0.271,1.174-0.948,1.218c-0.588-0.992-2.483,0.226-2.392-1.398c-0.994,0.135-2.078-0.361-2.935,0.406
		C73.101,71.421,72.423,71.691,71.927,71.105 M79.917,40.365c-0.271-0.226-0.271-0.946-0.858-0.676
		c-0.632,0.812-1.626,1.038-2.166,1.985l-1.852-0.678l-0.18-4.874c3.476,0.542,6.68,1.761,9.613,3.566
		c-0.405,0.405-1.262,0.812-1.397,1.444c0.406,0.136,0.632,0.632,1.084,0.18c-0.588,1.852-3.206,1.626-3.479,3.476
		c-1.443,1.49-2.256-1.76-3.653-0.315h-0.544C77.841,43.569,80.277,42.579,79.917,40.365 M98.875,43.932
		c0.272,1.536,1.624,3.159-0.09,4.424c-0.182,0.315-0.632,0.542-1.084,0.452c-0.362-0.814,0.632-1.084,0.452-1.942
		c0.315-0.18,0.901-0.632,0.542-1.084c-0.769-0.134-0.994-1.353-1.853-1.397c-0.855-0.227-1.487,0.315-1.939,0.722
		c-0.09-0.181-0.272-0.362-0.452-0.542c0.18-0.316,0.678-0.676,0.315-1.082c-0.812-0.452-0.947-1.536-1.85-2.032
		c-1.624-0.18-2.934-0.044-4.424-0.542c-1.49-0.362-1.084,1.354-1.626,2.032c-0.044,0.134-0.406-0.227-0.542-0.542
		c2.032-2.349,4.742-4.92,6.817-7.358c1.084,1.67,3.114,3.024,3.16,5.01c-0.361,0.227-0.634,0.723-0.678,1.175
		C96.753,42.261,98.199,42.533,98.875,43.932 M102.801,57.157c-0.044-0.948,0.498-1.806,0.227-2.708
		c2.214,0.36,4.786,0.226,7.132,0.09c-0.856,1.806-0.586,4.334-1.082,6.41c-1.446,6.228-4.29,11.962-8.893,16.79
		c-0.136-1.128-0.271-3.564-2.031-4.105c-0.272-0.137-0.362,0.18-0.542,0.315v0.632c-0.904-0.226-1.49-1.354-2.303-1.852h0.316
		c3.16-3.521,5.372-7.582,6.5-12.006c0.496,0.18,0.902,0.226,1.308-0.09C104.021,59.144,101.855,58.737,102.801,57.157
		 M94.135,82.299c-1.128-1.174,0.679-2.165,1.174-3.159c-0.09-2.076-5.1-2.166-1.716-4.559v-0.09
		c0.858,1.624,3.296,2.526,3.25,4.558c0.316,0.542,1.038,0.812,1.626,0.406l-4.649,3.929C93.955,83.021,94.497,82.705,94.135,82.299
		 M90.029,71.241c1.894,0.227,1.624-1.986,2.256-3.026c-0.044-0.586-0.044-1.172,0.452-1.533c0.044-0.858-0.092-1.761-0.542-2.482
		c-0.812-0.315-1.853,0-2.076,0.858c-0.182,0.226-0.09,0.586-0.452,0.766c-0.452-0.27-1.354,0.678-1.626-0.136
		c2.078,0.634,1.534-2.3,3.612-1.714c0.588-0.812,1.399-1.58,1.489-2.618c0.045,0.405,0.135,0.901,0.54,0.994
		c1.131,0.134,0.858-1.761,2.168-0.769c1.219,0.18,2.076-0.496,3.25-0.406c-0.813,3.7-2.89,6.591-5.281,9.614
		c-0.362-0.542-0.181-1.624-0.992-1.716c-0.586,0.678-0.948,1.49-1.084,2.395c-0.948,0.722-2.528,0.403-3.792,0.539
		c-1.174-1.082-2.798-1.082-4.242-1.623v-0.452C85.875,69.978,88.041,70.52,90.029,71.241 M83.843,61.039
		c0.406,0,0.406,0.994,1.174,0.994c0.452,0.36,0.406,0.902,0.542,1.398c-0.136,0.18-0.405,0.09-0.632,0.09
		C84.791,62.35,82.851,62.439,83.843,61.039 M99.643,59.325c-0.136-1.626-2.304-2.122-2.258-3.704l-1.218-1.397
		c1.172,0.768,2.934,0.315,4.332,0.451C100.049,56.165,100.095,57.833,99.643,59.325 M86.551,38.199
		c-3.023-2.752-7.492-4.47-11.689-4.784c0.136-2.212,0.226-4.695-0.137-6.817c6.41,0.451,11.963,2.89,16.929,6.817
		C89.893,34.407,88.133,36.575,86.551,38.199 M82.761,64.965c-0.226,0.814-1.399,0.679-1.941,1.4
		C80.683,65.509,81.767,64.785,82.761,64.965 M77.977,84.016c0.045,0.766-0.857,1.714-0.226,2.618
		c0.36,1.354,1.714,1.264,2.616,2.165c-1.534,0.271-3.836,0.227-5.506,0.858l0.09-5.734l-0.452-0.766
		C75.267,84.149,76.893,83.52,77.977,84.016 M75.177,99.182l-0.315,0.226v-7.584c2.481,0.406,5.01-0.27,7.447-0.676
		c1.626,0.359,2.664,2.708,4.469,1.986c4.605-1.717,5.056-6.952,9.75-8.578c1.445-0.856,2.8-2.12,3.794-3.475
		c1.352,1.76,3.338,3.564,5.188,5.326C97.339,94.081,86.823,98.686,75.177,99.182 M118.917,61.175
		c-1.446,8.803-5.552,16.564-11.556,23.471c-1.58-1.668-3.521-3.654-5.236-5.19c6.094-6.454,10.021-15.166,10.426-24.689
		l-0.224-0.452l0.313,0.361c2.438-0.136,5.057,0.271,7.269-0.361C119.277,56.481,119.413,58.917,118.917,61.175 M119.593,51.516
		l0.227,0.226c-2.258-0.046-4.92,0.044-7.269,0.316c-0.27-5.236-1.352-10.608-3.7-15.168c0-1.895-1.626-2.889-2.258-4.422
		c-1.67-1.49-2.571-3.477-4.558-4.877c-0.406-0.27-0.227-0.993-0.858-0.993l0.769-0.091l4.737-5.1
		C114.359,29.757,119.143,39.779,119.593,51.516 M74.725,7.1c2.305,0.632,4.921,0.495,7.269,0.991
		c8.622,1.58,16.52,5.553,22.976,11.692c-1.806,0.946-3.432,2.572-4.47,4.424v0.134c-0.36-0.812-1.352-1.308-1.262-2.392
		c-0.814-0.766-1.446-1.942-2.62-2.166c-0.45-1.49-1.94-0.588-2.798-1.534c-3.07,1.986-5.778-1.762-8.893-2.168
		c-2.936-0.89-6.006-1.688-9.206-1.494c0.179-0.542,0.177-1.304-0.454-1.529c-0.18,0.136-0.495,0.136-0.542,0.449
		C74.907,11.434,74.907,8.903,74.725,7.1 M79.827,17.705c3.294,0.679,6.454,1.582,9.434,3.024c1.851,0.904,1.219,2.934,2.572,4.018
		c0.496,0.86-0.496,1.672,0.452,2.395c-0.044,0.676,0.315,1.624,1.172,1.082c0.408-0.362,0.95-0.767,1.536-0.452
		c1.038,0.812,1.128,2.168,1.174,3.25c0.224,0.948,0.812,1.355,1.624,1.76c1.536-0.313,0.948,1.988,2.53,1.942
		c0.72,0.451,1.352,1.174,2.254,1.174c1.084,0.857,1.716,2.122,2.483,3.16c0.542,0.315,1.129-0.047,1.624-0.227
		c1.942,3.973,2.891,8.396,3.387,13l-6.95,0.134c-0.227-1.218,0.044-2.661-0.634-3.699c0.09-0.725,0.182-1.717,0.315-2.618
		c-0.27-0.678-0.676,0-0.992,0.134c-0.632,1.942-2.617,4.018-1.084,6.184l-2.708-0.134c0.362-0.496-0.226-1.218,0.137-1.852
		c1.534,0.408,1.67-1.398,2.481-2.166c0.227-1.174,1.536-2.437,0.406-3.656c0.814-1.218,0.406-2.844-0.09-3.926
		c-0.316-0.452-1.444,0.09-1.174-0.858c0.271-0.315,0.678-0.542,0.544-1.084c-0.318-0.496-0.679,0.09-1.084-0.09
		c-0.137-0.586,0.947-0.902,0.313-1.4c-0.722-1.038-2.029,1.085-2.302-0.54c0.136-0.947-0.768-1.582-1.488-2.168
		c-0.857,0.091-0.136-1.037-0.678-1.31c-2.346-1.128-0.542-4.828-3.656-4.784c-0.586-0.812-1.397-2.302-2.481-2.39
		c-0.408,0.812,0.812,1.172,0.722,1.983h-0.182c-0.09,0.588,0.452,1.49,0.857,1.717c-4.468-3.34-9.886-5.101-15.618-5.192
		c0.137-2.212,0.272-4.92-0.09-7.176C76.261,17.392,78.111,17.436,79.827,17.705 M73.417,44.925c-0.04,0.156,0.086,0.246,0.18,0.354
		c-0.243-0.101-1.33-0.2-1.443,0.368c0,0.947,1.172,1.218,1.626,1.852c1.894-0.77,2.256,1.668,3.79,1.94
		c-0.858,0.766,1.22,1.58-0.137,2.076c0.047,0.449-0.495,0.678-0.313,1.172c0.902,0.092,0.857,1.084,1.308,1.626
		c0.044,0.632-0.226,1.399,0.542,1.76c-0.136,0.768-0.18,1.58-0.542,2.258c-0.857,0.227-1.534,0.046-2.302,0.137
		c-1.308,0.722-0.452,3.021-2.256,2.888c-1.896,0.134-3.432-0.496-4.876-1.49c1.13-0.271,2.078,0.136,2.934-0.766
		c0-0.498,0.542-0.858,0.316-1.311c0.496-0.678,1.174-1.58,0.768-2.392c0.137-0.498-0.498-0.588-0.768-0.858
		c-1.038,0.136-2.212-0.36-3.16,0.452c0.092,0.676,0,1.534-0.722,1.714c-0.812,0.136-0.677,1.265-1.309,1.311l-0.542-0.994h0.227
		c-0.092,0.226,0.09,0.407,0.315,0.362c1.038,0.045,0.54-1.175,0.948-1.627l0.766-1.082c-0.361-0.18-0.676-0.541-0.54-0.993
		c-0.407-0.271-0.947,0-1.084,0.452c0.047,0.451,0,0.857-0.315,1.174h-0.227c0.137-0.272-0.226-0.362-0.315-0.542
		c-1.444,0.044-2.664,0.855-4.108,0.542c1.265-0.272,0.858-3.658,2.935-2.076l0.315-0.408c0.632,0.542,0.137,2.168,1.49,1.852
		c0.676-1.626-0.136-4.243,1.986-4.876c0.271-1.443,2.212-1.218,3.023-2.3c0.632-0.454,0.137-1.492,0-2.168l-0.136-0.09
		C72.153,44.925,72.829,44.879,73.417,44.925 M70.167,40.457c-0.678,0-0.813,0.812-1.084,1.309c0.316,0.632-0.452,1.082-0.632,1.626
		c-0.496-0.047-1.128,0.586-1.534-0.093c-0.766,0.406-1.264,0-1.806-0.542c-0.586,0.137-0.632,1.175-1.219,0.316
		c0.045-0.27,0.677-0.316,0.45-0.766c-0.676-0.633-1.578-0.994-2.481-1.174c2.708-2.935,6.273-4.335,10.065-4.875
		c0.272,1.534-0.18,3.654,0.406,5.19C71.747,40.457,69.761,42.579,70.167,40.457 M72.017,33.552
		c-4.197,0.134-8.214,1.85-11.237,4.737c-1.76-1.624-3.252-3.52-5.103-4.737c4.83-3.748,10.021-6.503,16.25-6.862l0.227-0.183
		C71.791,28.72,71.883,31.474,72.017,33.552 M71.927,7.325c-0.136,2.3-0.27,4.874,0.09,7.132
		c-9.434,0.314-18.01,4.017-24.689,10.517l-5.326-5.101C50.487,12.289,60.461,7.957,71.927,7.325 M40.375,21.497l0.226,0.678
		l4.874,4.74c-5.233,5.055-8.17,11.51-9.748,18.326c-0.271,2.3-0.903,4.558-0.632,6.906l-7.357-0.09
		C28.323,40.501,32.657,29.894,40.375,21.497"/>
	<path fill="#195A98" d="M105.917,103.289c-2.574,0.316-5.101,1.084-7.675,1.084c0.091-0.09,0.181-0.272,0.316-0.226
		c8.442-0.723,10.834-9.887,14.311-15.572c-5.192,3.384-9.66,9.162-14.4,12.864c-2.618,1.985-5.732,2.571-8.802,3.474
		c6.77,0.498,12.414,3.702,19.5,3.25c7.582-0.316,14.533-4.738,18.1-11.464C122.03,102.927,113.635,102.567,105.917,103.289"/>
	<path fill="#195A98" d="M99.552,110.24c-7.719-3.521-16.656-7.448-25.685-4.107c-4.558-1.488-10.518-1.488-15.076,0
		c-7.943,3.609-18.775,9.073-27.174,3.023c1.582,1.896,3.296,2.798,5.103,4.108c5.416,3.52,13.226,3.16,18.821,0.316
		c5.146-2.166,9.074-8.623,15.618-6.591c-5.552,2.798-10.651,6.139-15.256,10.923l2.798,2.394c4.062-5.372,9.524-9.84,15.393-12.46
		c5.688,2.756,10.88,7.494,15.168,12.234l2.798-2.395c-4.514-4.376-9.75-7.898-15.166-10.696c1.397-0.359,3.114-0.271,4.558-0.136
		c5.868,2.574,10.382,7.72,17.017,8.486c7.042,1.128,13.315-1.717,17.649-6.86l-3.34,1.76
		C108.85,112.001,103.569,111.549,99.552,110.24"/>
	<path fill="#195A98" d="M35.319,94.938c-2.572-7.086-4.83-14.488-10.426-20.223l1.31,3.34c1.263,7.494,1.851,15.754,8.666,20.494
		l-0.092,0.09c-2.21-0.947-3.88-2.8-5.866-4.018c-6.412-4.152-15.258-6.004-18.868-13.948c0.992,5.824,4.965,11.015,9.75,14.626
		c5.732,5.057,13.721,4.648,20.719,6.681C37.938,99.994,36.493,97.736,35.319,94.938"/>
	<path fill="#195A98" d="M129.343,88.258c-5.596,2.618-11.284,5.596-16.024,9.75h-0.542l0.318-0.452
		c8.17-5.416,5.958-15.888,9.432-23.607l-3.79,4.966c-5.102,7.042-4.514,16.655-11.602,22.66c3.656-1.175,7.674-1.67,11.466-2.482
		c8.532-2.168,17.514-10.562,18.732-19.32C135.799,83.428,132.593,86.136,129.343,88.258"/>
	<path fill="#195A98" d="M27.061,91.146c-5.101-8.802-2.393-20.764-6.5-29.972c0.542,2.979-0.406,5.596-0.858,8.306
		c-1.534,5.19-0.769,11.284,2.258,15.526c-0.994-0.496-1.626-1.668-2.258-2.706c-3.746-7.178-13.18-11.24-13.994-19.862
		c-0.044,3.116-0.044,6.41,0.904,9.208C9.23,81.307,19.882,86.272,27.061,91.146"/>
	<path fill="#195A98" d="M140.041,66.457c-3.972,6.182-10.742,11.237-14.084,17.647c-0.09,0.227-0.406,0.362-0.542,0.137
		l0.678-0.858c4.784-6.906,0.496-15.392,0.769-23.11c-4.29,9.254-1.174,21.53-6.41,30.334l0.858-0.724
		c10.153-5.552,22.388-14.896,20.355-28.526C141.487,63.207,140.899,64.877,140.041,66.457"/>
	<path fill="#195A98" d="M58.07,105.14c-10.021-0.452-15.438-11.376-23.518-16.024c3.476,4.062,3.611,9.435,8.441,12.774
		c1.851,1.626,4.332,1.939,6.408,2.798c-2.3,0.226-4.422-0.722-6.724-0.858c-7.765-0.947-16.656,0.047-22.345-6.271
		c2.572,4.512,7.132,8.439,11.916,9.974C41.278,110.962,49.448,105.907,58.07,105.14"/>
	<path fill="#195A98" d="M15.278,41.449c1.31-2.617,3.838-5.1,6.048-6.951c5.102-3.294,9.662-8.532,9.842-14.398
		c-2.71,6.95-11.646,7.854-13.858,15.256h-0.226c3.294-6.138,1.444-14.806,7.718-19.364c-3.294,0.948-6.092,3.387-7.808,6.274
		C13.338,27.636,16.315,35.086,15.278,41.449"/>
	<path fill="#195A98" d="M25.435,32.557c-2.935,5.372-10.066,8.485-11.374,14.852c0,1.038-0.316,2.03-0.542,3.024l-0.227-0.227
		l0.36-4.107c1.22-7.358-3.068-14.94,0.722-21.217c-2.615,3.116-4.376,6.862-5.279,10.834c-1.761,8.307,3.25,14.717,4.334,22.299
		C14.872,48.492,24.893,42.488,25.435,32.557"/>
	<path fill="#195A98" d="M25.028,24.207c5.778-4.019,7.267-10.564,12.864-14.714c-4.288,1.714-8.936,3.111-12.142,7.13
		c-2.484,3.25-3.25,7.132-4.515,10.834L25.028,24.207z"/>
	<path fill="#195A98" d="M16.994,75.574c-0.498-2.122-0.406-4.786-0.09-6.952c1.896-7.537,4.874-14.806,4.422-23.155
		c-1.126,6.004-6.498,10.246-7.13,16.43c-0.406,2.528,0.224,5.01,0.54,7.269c-0.586-1.129-1.128-2.438-1.219-3.883
		C12.616,57.158,6.07,51.198,7.47,42.398C5.122,47.814,5.258,54.99,7.018,60.633C8.552,66.456,14.106,70.519,16.994,75.574"/>
	<rect x="154.539" y="119.558" fill="#195A98" width="180.182" height="0.814"/>
	<rect x="155.081" y="4.182" fill="#195A98" width="179.958" height="0.813"/>
	<path fill="#195A98" d="M161.529,30.869c4.411,0,6.472-2.412,6.472-5.834v-8.162h-3.586v8.061c0,1.628-0.99,2.802-2.886,2.802
		c-1.918,0-2.906-1.174-2.906-2.802v-8.061h-3.608v8.185C155.015,28.438,157.117,30.869,161.529,30.869"/>
	<polygon fill="#195A98" points="177.115,22.666 182.928,30.622 186.35,30.622 186.35,16.874 182.783,16.874 182.783,24.438 
		177.219,16.874 173.569,16.874 173.569,30.622 177.115,30.622 	"/>
	<rect x="191.919" y="16.874" fill="#195A98" width="3.546" height="13.748"/>
	<polygon fill="#195A98" points="200.247,19.966 204.101,19.966 204.101,30.622 207.646,30.622 207.646,19.966 211.48,19.966 
		211.48,16.874 200.247,16.874 	"/>
	<polygon fill="#195A98" points="226.345,19.966 226.345,16.874 216.265,16.874 216.265,30.622 226.345,30.622 226.345,27.53 
		219.811,27.53 219.811,25.202 226.2,25.202 226.2,22.11 219.811,22.11 219.811,19.966 	"/>
	<path fill="#195A98" d="M237.271,16.875h-5.772v13.748h5.792c4.309,0,7.42-2.618,7.42-6.887
		C244.711,19.471,241.6,16.875,237.271,16.875 M237.271,27.53h-2.227v-7.563h2.246c2.517,0,3.794,1.647,3.794,3.77
		C241.085,25.778,239.684,27.53,237.271,27.53"/>
	<polygon fill="#195A98" points="158.561,48.177 164.373,56.133 167.795,56.133 167.795,42.385 164.229,42.385 164.229,49.949 
		158.665,42.385 155.015,42.385 155.015,56.133 158.561,56.133 	"/>
	<path fill="#195A98" d="M175.921,56.133l0.68-1.978h5.42l0.68,1.978h4.021l-5.174-13.748h-4.473l-5.176,13.748H175.921z
		 M179.32,45.889l1.732,5.174h-3.484L179.32,45.889z"/>
	<polygon fill="#195A98" points="188.764,45.477 192.618,45.477 192.618,56.133 196.164,56.133 196.164,45.477 199.998,45.477 
		199.998,42.385 188.764,42.385 	"/>
	<rect x="204.78" y="42.386" fill="#195A98" width="3.546" height="13.748"/>
	<path fill="#195A98" d="M213.193,49.269c0,4.185,3.154,7.112,7.358,7.112c4.206,0,7.338-2.928,7.338-7.112
		c0-4.184-3.132-7.109-7.338-7.109C216.348,42.159,213.193,45.085,213.193,49.269 M220.552,45.291c2.268,0,3.731,1.731,3.731,3.978
		c0,2.227-1.464,3.979-3.731,3.979c-2.267,0-3.752-1.752-3.752-3.979C216.8,47.022,218.285,45.291,220.552,45.291"/>
	<polygon fill="#195A98" points="241.992,49.949 236.426,42.386 232.778,42.386 232.778,56.134 236.322,56.134 236.322,48.178 
		242.136,56.134 245.558,56.134 245.558,42.386 241.992,42.386 	"/>
	<path fill="#195A98" d="M256.423,53.247c-1.896,0-3.422-0.824-4.412-1.813l-1.874,2.762c1.38,1.298,3.318,2.186,6.101,2.186
		c3.689,0,5.731-1.836,5.731-4.596c0-5.114-7.771-3.836-7.771-5.526c0-0.596,0.453-0.947,1.483-0.947
		c1.36,0,2.866,0.474,4.021,1.443l1.938-2.66c-1.464-1.256-3.382-1.916-5.586-1.916c-3.523,0-5.462,2.061-5.462,4.37
		c0,5.296,7.771,3.792,7.771,5.606C258.361,52.835,257.619,53.247,256.423,53.247"/>
	<path fill="#195A98" d="M168.229,74.76c0-4.267-3.113-6.864-7.441-6.864h-5.772v13.748h5.792
		C165.115,81.644,168.229,79.025,168.229,74.76 M158.561,78.552v-7.564h2.246c2.517,0,3.794,1.648,3.794,3.772
		c0,2.04-1.401,3.792-3.813,3.792H158.561z"/>
	<polygon fill="#195A98" points="183.175,70.986 183.175,67.895 173.095,67.895 173.095,81.643 183.175,81.643 183.175,78.551 
		176.641,78.551 176.641,76.223 183.031,76.223 183.031,73.131 176.641,73.131 176.641,70.986 	"/>
	<polygon fill="#195A98" points="192.041,81.644 196.513,81.644 201.687,67.896 197.667,67.896 194.287,77.81 190.887,67.896 
		186.867,67.896 	"/>
	<polygon fill="#195A98" points="205.792,81.644 215.872,81.644 215.872,78.552 209.338,78.552 209.338,76.224 215.728,76.224 
		215.728,73.132 209.338,73.132 209.338,70.987 215.872,70.987 215.872,67.896 205.792,67.896 	"/>
	<polygon fill="#195A98" points="224.511,67.896 220.965,67.896 220.965,81.644 230.034,81.644 230.034,78.552 224.511,78.552 	"/>
	<path fill="#195A98" d="M233.749,74.78c0,4.184,3.151,7.111,7.355,7.111c4.206,0,7.341-2.928,7.341-7.111
		c0-4.185-3.135-7.112-7.341-7.112C236.9,67.668,233.749,70.596,233.749,74.78 M244.837,74.78c0,2.226-1.462,3.978-3.732,3.978
		c-2.266,0-3.75-1.752-3.75-3.978c0-2.246,1.484-3.979,3.75-3.979C243.375,70.802,244.837,72.534,244.837,74.78"/>
	<path fill="#195A98" d="M253.331,67.896v13.748h3.546v-4.616h3.341c3.092,0,4.781-2.082,4.781-4.557
		c0-2.493-1.689-4.575-4.781-4.575H253.331z M261.392,72.471c0,0.929-0.762,1.465-1.71,1.465h-2.805v-2.948h2.805
		C260.63,70.987,261.392,71.523,261.392,72.471"/>
	<polygon fill="#195A98" points="285.283,81.644 285.283,67.896 280.357,67.896 277.491,75.479 274.607,67.896 269.68,67.896 
		269.68,81.644 273.226,81.644 273.226,72.554 276.708,81.644 278.275,81.644 281.739,72.554 281.739,81.644 	"/>
	<polygon fill="#195A98" points="300.932,70.986 300.932,67.895 290.852,67.895 290.852,81.643 300.932,81.643 300.932,78.551 
		294.398,78.551 294.398,76.223 300.788,76.223 300.788,73.131 294.398,73.131 294.398,70.986 	"/>
	<polygon fill="#195A98" points="315.445,81.644 318.867,81.644 318.867,67.896 315.302,67.896 315.302,75.46 309.737,67.896 
		306.088,67.896 306.088,81.644 309.634,81.644 309.634,73.688 	"/>
	<polygon fill="#195A98" points="323.653,70.986 327.507,70.986 327.507,81.643 331.053,81.643 331.053,70.986 334.887,70.986 
		334.887,67.895 323.653,67.895 	"/>
	<path fill="#195A98" d="M161.756,107.402c2.599,0,4.618-1.052,6.08-2.681V99.26H161.2v3.112h3.092v1.072
		c-0.496,0.412-1.526,0.824-2.536,0.824c-2.246,0-3.834-1.73-3.834-3.979c0-2.266,1.588-3.979,3.834-3.979
		c1.34,0,2.391,0.847,2.906,1.753l2.968-1.546c-0.948-1.711-2.802-3.339-5.874-3.339c-4.102,0-7.439,2.74-7.439,7.11
		S157.654,107.402,161.756,107.402"/>
	<path fill="#195A98" d="M173.013,107.153h3.546v-4.615h1.813l2.309,4.615h4.062l-2.804-5.048c1.298-0.454,2.742-1.731,2.742-4.124
		c0-2.556-1.732-4.576-4.784-4.576h-6.884V107.153z M176.559,96.498h2.804c0.948,0,1.71,0.516,1.71,1.464
		c0,0.968-0.762,1.484-1.71,1.484h-2.804V96.498z"/>
	<path fill="#195A98" d="M196.39,93.179c-4.204,0-7.357,2.928-7.357,7.112c0,4.184,3.153,7.112,7.357,7.112
		c4.206,0,7.338-2.929,7.338-7.112C203.728,96.106,200.596,93.179,196.39,93.179 M196.39,104.269c-2.266,0-3.752-1.752-3.752-3.978
		c0-2.246,1.486-3.979,3.752-3.979c2.269,0,3.732,1.732,3.732,3.979C200.122,102.517,198.658,104.269,196.39,104.269"/>
	<path fill="#195A98" d="M208.616,93.406v8.183c0,3.38,2.104,5.813,6.514,5.813c4.412,0,6.472-2.412,6.472-5.834v-8.162h-3.586
		v8.059c0,1.63-0.989,2.804-2.886,2.804c-1.918,0-2.906-1.174-2.906-2.804v-8.059H208.616z"/>
	<path fill="#195A98" d="M227.17,107.153h3.546v-4.615h3.34c3.092,0,4.782-2.082,4.782-4.557c0-2.494-1.69-4.576-4.782-4.576h-6.886
		V107.153z M230.716,96.498h2.804c0.948,0,1.71,0.536,1.71,1.483c0,0.929-0.762,1.465-1.71,1.465h-2.804V96.498z"/>
</g>
</svg>
