<svg xmlns="http://www.w3.org/2000/svg" width="347" height="125"><path fill="#195A98" d="M163.245 119.659h172.313v.713H163.245zm.518-115.477h172.1v.716h-172.1z"/><g fill="#195A98"><path d="M125.416 26.508c-1.038-2.166-1.263-4.694-2.347-6.86-2.168-6.048-8.892-8.983-14.445-10.834l3.476 3.477c3.522 5.415 8.442 10.787 13.316 14.217"/><path d="M127.944 28.855c.452 1.986 1.67 3.792 1.806 5.778-2.573-7.448-11.239-8.26-14.399-15.303l.992 4.108c2.438 7.99 11.964 9.93 15.573 17.152-1.128-5.236.858-10.698-.722-15.845-1.31-4.422-4.966-8.306-9.434-9.613 4.785 3.162 4.469 8.983 6.184 13.723M77.75 13.915c2.032-.902 4.47.586 6.184-1.311-.497-1.352-2.302-1.397-3.655-1.624l-3.25 1.444c-.362.18-1.49-.406-1.311.542.632.407 1.266.859 2.032.949m57.01 46.718c-.992 2.438-.586 5.552-2.076 7.674-.09-1.218.588-2.392.678-3.702 1.126-8.168-5.96-13-7.584-19.906-.09 1.851.044 3.612.316 5.282.406 8.62 6.048 15.618 4.422 24.601 1.626-2.121 2.846-4.289 4.786-6.364 6.5-6.771 8.17-18.101 4.424-26.767 1.263 7.31-3.161 12.818-4.966 19.182"/><path d="M133.361 41.314c.134 2.754.586 5.506.406 8.26-.406-1.082-.496-2.256-.769-3.386-1.354-6.185-8.622-9.208-11.556-14.398.452 1.76.768 3.521 1.399 5.19 2.528 7.313 10.112 12.231 11.15 20.178.676-7.584 6.002-13.632 4.019-21.892-1.04-4.154-2.755-8.217-5.868-11.377 3.339 4.876 1.443 11.737 1.219 17.425m-35.57-22.208l-.315-1.4c-.36-.902-1.58-.45-2.168-.766-.36.09-.225.676-.088.901 1.172.092 1.172 2.077 2.571 1.265"/><path d="M25.569 59.1C27.241 77.786 42.001 95.074 60.1 99.814c19.906 5.506 40.084-1.49 52.314-17.65 11.06-13.63 12.956-36.652 3.794-51.771-4.29-8.263-12.504-16.387-20.674-20.358-13.452-7.54-33.358-6.636-46.269 1.308-16.744 9.885-25.952 27.94-23.696 47.757m2.258-4.334c2.348.134 4.966.226 7.268-.091-.136 3.114.496 6.5 1.488 9.389-.676-.767-1.264-2.212-2.482-1.174-.451.182.093 1.174-.768.857-.18-.315-1.128-.676-1.624-.226-.768 1.13-1.22 2.483-.858 3.928.948.766.272 3.07 1.942 2.572.452.498 1.038 1.489 1.85 1.536l.452-.769c.45 1.218 1.624 1.128 2.256 2.166 1.084-.54.589.902 1.219 1.22.678.406.994 1.67 2.031 1.175.091-.093.272-.183.227-.318.271.948 1.038 2.032 2.166 2.258.904.769 1.49 1.806 2.392 2.393-1.804 1.443-3.655 3.43-5.326 5.189-7.493-8.53-11.737-18.596-12.233-30.105m44.19-30.651c-6.905.092-13.315 2.934-18.1 7.584-1.49-1.624-3.25-3.612-5.056-4.876 6.546-5.822 14.399-8.982 23.155-9.658a60.353 60.353 0 0 0 .001 6.95M61.861 60.813c.271-.406-.316-.676-.137-1.174.542.315.272 1.31.679 1.85.18.182.044.498.09.768l-2.076 2.168c-1.13-2.031-2.482-3.928-3.024-6.184l-.405-.678c.496.678 1.896-.046 1.939 1.084.542.496 1.311-.271 1.174.768.36.813 1.084 1.126 1.76 1.398m4.966.676c.18 1.04 1.399 1.174 2.076 1.716 1.22.406 2.481 1.356 3.882.679-.586.226-.046.947-.227 1.264-.09.406-.359.992-.09 1.624.227.362.496.362.542.768-.405.452-1.084.046-1.536.316-.449.678-.449 1.534-.403 2.392-3.206-.496-6.095-1.986-8.578-3.882l4.334-4.877zm-3.25-.45c.36-.498.855-.994.992-1.624l.722.45c-.722-.046-1.082.903-1.714 1.174m8.666 28.618l-.542-.316c-8.893-.405-16.61-4.197-23.202-9.886.768-.09 1.896 1.49 3.252.769 1.49-1.129 3.34-.452 4.874-1.4.406-.948-.632-.992-.632-1.76 4.649 3.476 10.112 6.004 16.16 5.642-.136 2.255-.27 4.785.09 6.951M47.447 59.549c.332-1.741-.183-3.439-.662-5.01.722.406 1.354.406 2.166.227-1.038.09-.632 1.804-1.172 2.618 1.296.668-.116 1.413-.332 2.165m3.446-4.783c.496-.36 1.354.315 1.534-.542.09-1.038-1.58-2.618.09-3.16.725.046 1.717-.137 1.851.768.362 1.128-.225 2.754.092 3.79l-1.084.544c-.406-.271-.632-.904-1.172-.857-.634.449.224.812.088 1.31-.044.36-.134.767-.088 1.172-.362.044-.771-.271-.994.227 0 .766.812.947 1.218 1.31.769-.318.725-1.536.858-2.394l.768.452c.632 3.384 2.303 6.634 4.422 9.073l-6.048 6.272c0-.45-.768-.181-.313-.723.359-.226.992-.405.945-.991.047-1.13-.359-2.212-1.082-2.935-.226-1.58 0-3.43-.857-4.649.224-1.717-.724-3.204-1.942-4.425.496-.901-.542-1.354-.226-2.302.992-.27 2.166-.541 1.94-1.94m15.392 21.757c.768 1.262 1.444 2.932 3.16 3.158-4.694-.769-9.706-3.158-13.679-6.591h-.315c1.716-1.443 3.432-3.113 4.874-4.876 2.078 2.44 4.966 3.702 7.81 4.65.542-.136 1.084-.226 1.626-.316-1.13.137-2.031.679-2.618 1.626.27 1.083-1.31 1.309-.858 2.349m-9.75-34.305c-1.309.676-1.716 2.121-3.25 2.346-.812.406.27 1.218-.769 1.443-2.166-.134-2.436 2.438-3.113 3.883 0 .768-.09 1.582.405 2.168l-2.934.09c.678-3.702 1.174-7.448 2.934-10.698 1.084-2.212 2.572-4.288 4.108-6.184 1.85 1.716 3.25 3.52 5.326 4.966-1.217.133-1.489 1.849-2.707 1.986m-4.422-8.803c-4.786 5.057-7.269 11.42-7.721 18.416l.227.316c-2.212-.183-4.786-.046-7.132-.09.586-8.849 3.79-16.746 9.523-23.292v-.45c1.445 1.804 3.207 3.564 5.103 5.1m-7.494 21.26c-.3.898-.312 2.043.128 2.923a5.04 5.04 0 0 0-.67-.576c-1.536-.134-1.58 1.806-3.024 1.852-.994 1.354-1.22 3.114-1.399 4.648-.542 0-.272.724-.677.994-.271-3.114-1.174-6.274-1.399-9.524l-.227-.316c2.302.315 5.01.315 7.268-.001m-2.618 32.049l5.01-5.19c6.771 6.68 15.528 10.244 25.143 10.516l.09-.136c-.406 2.168-.134 4.561-.227 6.816l.316.542c-11.51-.723-21.756-4.875-30.332-12.548m29.926-15.619c.09-.45.948-.227 1.174-.858 1.038.137 1.084-1.174 1.624-1.624.723.134 1.49-1.22 1.942-.09 1.038-.452 1.76 2.074 2.076.09.586.181 1.128 1.082 1.714.45.498-.316.092-.858-.09-1.082.542.27 1.264 1.082 1.852.316.271-.588.677-.588 1.172-.858.589.224.318 1.084.137 1.49-.767 1.082-2.21 1.939-3.61 2.166-.271.496-.271 1.174-.948 1.218-.588-.992-2.483.226-2.392-1.398-.994.135-2.078-.361-2.935.406-.542.09-1.22.36-1.716-.226m7.99-30.74c-.271-.226-.271-.946-.858-.676-.632.812-1.626 1.038-2.166 1.985l-1.852-.678-.18-4.874c3.476.542 6.68 1.761 9.613 3.566-.405.405-1.262.812-1.397 1.444.406.136.632.632 1.084.18-.588 1.852-3.206 1.626-3.479 3.476-1.443 1.49-2.256-1.76-3.653-.315h-.544c1.356-.904 3.792-1.894 3.432-4.108m18.958 3.567c.272 1.536 1.624 3.159-.09 4.424-.182.315-.632.542-1.084.452-.362-.814.632-1.084.452-1.942.315-.18.901-.632.542-1.084-.769-.134-.994-1.353-1.853-1.397-.855-.227-1.487.315-1.939.722-.09-.181-.272-.362-.452-.542.18-.316.678-.676.315-1.082-.812-.452-.947-1.536-1.85-2.032-1.624-.18-2.934-.044-4.424-.542-1.49-.362-1.084 1.354-1.626 2.032-.044.134-.406-.227-.542-.542 2.032-2.349 4.742-4.92 6.817-7.358 1.084 1.67 3.114 3.024 3.16 5.01-.361.227-.634.723-.678 1.175 1.13 1.035 2.576 1.307 3.252 2.706m3.926 13.225c-.044-.948.498-1.806.227-2.708 2.214.36 4.786.226 7.132.09-.856 1.806-.586 4.334-1.082 6.41-1.446 6.228-4.29 11.962-8.893 16.79-.136-1.128-.271-3.564-2.031-4.105-.272-.137-.362.18-.542.315v.632c-.904-.226-1.49-1.354-2.303-1.852h.316c3.16-3.521 5.372-7.582 6.5-12.006.496.18.902.226 1.308-.09.588-1.489-1.578-1.896-.632-3.476m-8.666 25.142c-1.128-1.174.679-2.165 1.174-3.159-.09-2.076-5.1-2.166-1.716-4.559v-.09c.858 1.624 3.296 2.526 3.25 4.558.316.542 1.038.812 1.626.406l-4.649 3.929c.135-.363.677-.679.315-1.085m-4.106-11.058c1.894.227 1.624-1.986 2.256-3.026-.044-.586-.044-1.172.452-1.533.044-.858-.092-1.761-.542-2.482-.812-.315-1.853 0-2.076.858-.182.226-.09.586-.452.766-.452-.27-1.354.678-1.626-.136 2.078.634 1.534-2.3 3.612-1.714.588-.812 1.399-1.58 1.489-2.618.045.405.135.901.54.994 1.131.134.858-1.761 2.168-.769 1.219.18 2.076-.496 3.25-.406-.813 3.7-2.89 6.591-5.281 9.614-.362-.542-.181-1.624-.992-1.716a4.669 4.669 0 0 0-1.084 2.395c-.948.722-2.528.403-3.792.539-1.174-1.082-2.798-1.082-4.242-1.623v-.452c2.166.046 4.332.588 6.32 1.309m-6.186-10.202c.406 0 .406.994 1.174.994.452.36.406.902.542 1.398-.136.18-.405.09-.632.09-.136-1.171-2.076-1.082-1.084-2.482m15.8-1.714c-.136-1.626-2.304-2.122-2.258-3.704l-1.218-1.397c1.172.768 2.934.315 4.332.451-.45 1.49-.404 3.158-.856 4.65M86.551 38.199c-3.023-2.752-7.492-4.47-11.689-4.784.136-2.212.226-4.695-.137-6.817 6.41.451 11.963 2.89 16.929 6.817-1.761.992-3.521 3.16-5.103 4.784m-3.79 26.766c-.226.814-1.399.679-1.941 1.4-.137-.856.947-1.58 1.941-1.4m-4.784 19.051c.045.766-.857 1.714-.226 2.618.36 1.354 1.714 1.264 2.616 2.165-1.534.271-3.836.227-5.506.858l.09-5.734-.452-.766c.768.992 2.394.363 3.478.859m-2.8 15.166l-.315.226v-7.584c2.481.406 5.01-.27 7.447-.676 1.626.359 2.664 2.708 4.469 1.986 4.605-1.717 5.056-6.952 9.75-8.578 1.445-.856 2.8-2.12 3.794-3.475 1.352 1.76 3.338 3.564 5.188 5.326-8.171 7.674-18.687 12.279-30.333 12.775m43.74-38.007c-1.446 8.803-5.552 16.564-11.556 23.471-1.58-1.668-3.521-3.654-5.236-5.19a38.403 38.403 0 0 0 10.426-24.689l-.224-.452.313.361c2.438-.136 5.057.271 7.269-.361-.632 2.166-.496 4.602-.992 6.86m.676-9.659l.227.226c-2.258-.046-4.92.044-7.269.316-.27-5.236-1.352-10.608-3.7-15.168 0-1.895-1.626-2.889-2.258-4.422-1.67-1.49-2.571-3.477-4.558-4.877-.406-.27-.227-.993-.858-.993l.769-.091 4.737-5.1c7.676 8.35 12.46 18.372 12.91 30.109M74.725 7.1c2.305.632 4.921.495 7.269.991 8.622 1.58 16.52 5.553 22.976 11.692-1.806.946-3.432 2.572-4.47 4.424v.134c-.36-.812-1.352-1.308-1.262-2.392-.814-.766-1.446-1.942-2.62-2.166-.45-1.49-1.94-.588-2.798-1.534-3.07 1.986-5.778-1.762-8.893-2.168-2.936-.89-6.006-1.688-9.206-1.494.179-.542.177-1.304-.454-1.529-.18.136-.495.136-.542.449.182-2.073.182-4.604 0-6.407m5.102 10.605c3.294.679 6.454 1.582 9.434 3.024 1.851.904 1.219 2.934 2.572 4.018.496.86-.496 1.672.452 2.395-.044.676.315 1.624 1.172 1.082.408-.362.95-.767 1.536-.452 1.038.812 1.128 2.168 1.174 3.25.224.948.812 1.355 1.624 1.76 1.536-.313.948 1.988 2.53 1.942.72.451 1.352 1.174 2.254 1.174 1.084.857 1.716 2.122 2.483 3.16.542.315 1.129-.047 1.624-.227 1.942 3.973 2.891 8.396 3.387 13l-6.95.134c-.227-1.218.044-2.661-.634-3.699.09-.725.182-1.717.315-2.618-.27-.678-.676 0-.992.134-.632 1.942-2.617 4.018-1.084 6.184l-2.708-.134c.362-.496-.226-1.218.137-1.852 1.534.408 1.67-1.398 2.481-2.166.227-1.174 1.536-2.437.406-3.656.814-1.218.406-2.844-.09-3.926-.316-.452-1.444.09-1.174-.858.271-.315.678-.542.544-1.084-.318-.496-.679.09-1.084-.09-.137-.586.947-.902.313-1.4-.722-1.038-2.029 1.085-2.302-.54.136-.947-.768-1.582-1.488-2.168-.857.091-.136-1.037-.678-1.31-2.346-1.128-.542-4.828-3.656-4.784-.586-.812-1.397-2.302-2.481-2.39-.408.812.812 1.172.722 1.983h-.182c-.09.588.452 1.49.857 1.717-4.468-3.34-9.886-5.101-15.618-5.192.137-2.212.272-4.92-.09-7.176 1.628.452 3.478.496 5.194.765m-6.41 27.22c-.04.156.086.246.18.354-.243-.101-1.33-.2-1.443.368 0 .947 1.172 1.218 1.626 1.852 1.894-.77 2.256 1.668 3.79 1.94-.858.766 1.22 1.58-.137 2.076.047.449-.495.678-.313 1.172.902.092.857 1.084 1.308 1.626.044.632-.226 1.399.542 1.76-.136.768-.18 1.58-.542 2.258-.857.227-1.534.046-2.302.137-1.308.722-.452 3.021-2.256 2.888-1.896.134-3.432-.496-4.876-1.49 1.13-.271 2.078.136 2.934-.766 0-.498.542-.858.316-1.311.496-.678 1.174-1.58.768-2.392.137-.498-.498-.588-.768-.858-1.038.136-2.212-.36-3.16.452.092.676 0 1.534-.722 1.714-.812.136-.677 1.265-1.309 1.311l-.542-.994h.227c-.092.226.09.407.315.362 1.038.045.54-1.175.948-1.627l.766-1.082c-.361-.18-.676-.541-.54-.993-.407-.271-.947 0-1.084.452.047.451 0 .857-.315 1.174h-.227c.137-.272-.226-.362-.315-.542-1.444.044-2.664.855-4.108.542 1.265-.272.858-3.658 2.935-2.076l.315-.408c.632.542.137 2.168 1.49 1.852.676-1.626-.136-4.243 1.986-4.876.271-1.443 2.212-1.218 3.023-2.3.632-.454.137-1.492 0-2.168l-.136-.09c.362-.317 1.038-.363 1.626-.317m-3.25-4.468c-.678 0-.813.812-1.084 1.309.316.632-.452 1.082-.632 1.626-.496-.047-1.128.586-1.534-.093-.766.406-1.264 0-1.806-.542-.586.137-.632 1.175-1.219.316.045-.27.677-.316.45-.766-.676-.633-1.578-.994-2.481-1.174 2.708-2.935 6.273-4.335 10.065-4.875.272 1.534-.18 3.654.406 5.19-.585-.991-2.571 1.131-2.165-.991m1.85-6.905c-4.197.134-8.214 1.85-11.237 4.737-1.76-1.624-3.252-3.52-5.103-4.737 4.83-3.748 10.021-6.503 16.25-6.862l.227-.183c-.363 2.213-.271 4.967-.137 7.045m-.09-26.227c-.136 2.3-.27 4.874.09 7.132-9.434.314-18.01 4.017-24.689 10.517l-5.326-5.101c8.485-7.584 18.459-11.916 29.925-12.548M40.375 21.497l.226.678 4.874 4.74c-5.233 5.055-8.17 11.51-9.748 18.326-.271 2.3-.903 4.558-.632 6.906l-7.357-.09c.585-11.556 4.919-22.163 12.637-30.56m65.542 81.792c-2.574.316-5.101 1.084-7.675 1.084.091-.09.181-.272.316-.226 8.442-.723 10.834-9.887 14.311-15.572-5.192 3.384-9.66 9.162-14.4 12.864-2.618 1.985-5.732 2.571-8.802 3.474 6.77.498 12.414 3.702 19.5 3.25 7.582-.316 14.533-4.738 18.1-11.464-5.237 6.228-13.632 5.868-21.35 6.59"/><path d="M99.552 110.24c-7.719-3.521-16.656-7.448-25.685-4.107-4.558-1.488-10.518-1.488-15.076 0-7.943 3.609-18.775 9.073-27.174 3.023 1.582 1.896 3.296 2.798 5.103 4.108 5.416 3.52 13.226 3.16 18.821.316 5.146-2.166 9.074-8.623 15.618-6.591-5.552 2.798-10.651 6.139-15.256 10.923l2.798 2.394c4.062-5.372 9.524-9.84 15.393-12.46 5.688 2.756 10.88 7.494 15.168 12.234l2.798-2.395c-4.514-4.376-9.75-7.898-15.166-10.696 1.397-.359 3.114-.271 4.558-.136 5.868 2.574 10.382 7.72 17.017 8.486 7.042 1.128 13.315-1.717 17.649-6.86l-3.34 1.76c-3.928 1.762-9.209 1.31-13.226.001M35.319 94.938c-2.572-7.086-4.83-14.488-10.426-20.223l1.31 3.34c1.263 7.494 1.851 15.754 8.666 20.494l-.092.09c-2.21-.947-3.88-2.8-5.866-4.018-6.412-4.152-15.258-6.004-18.868-13.948.992 5.824 4.965 11.015 9.75 14.626 5.732 5.057 13.721 4.648 20.719 6.681-2.574-1.986-4.019-4.244-5.193-7.042m94.024-6.68c-5.596 2.618-11.284 5.596-16.024 9.75h-.542l.318-.452c8.17-5.416 5.958-15.888 9.432-23.607l-3.79 4.966c-5.102 7.042-4.514 16.655-11.602 22.66 3.656-1.175 7.674-1.67 11.466-2.482 8.532-2.168 17.514-10.562 18.732-19.32-1.534 3.655-4.74 6.363-7.99 8.485"/><path d="M27.061 91.146c-5.101-8.802-2.393-20.764-6.5-29.972.542 2.979-.406 5.596-.858 8.306-1.534 5.19-.769 11.284 2.258 15.526-.994-.496-1.626-1.668-2.258-2.706-3.746-7.178-13.18-11.24-13.994-19.862-.044 3.116-.044 6.41.904 9.208 2.617 9.661 13.269 14.626 20.448 19.5m112.98-24.689c-3.972 6.182-10.742 11.237-14.084 17.647-.09.227-.406.362-.542.137l.678-.858c4.784-6.906.496-15.392.769-23.11-4.29 9.254-1.174 21.53-6.41 30.334l.858-.724c10.153-5.552 22.388-14.896 20.355-28.526-.178 1.85-.766 3.52-1.624 5.1M58.07 105.14c-10.021-.452-15.438-11.376-23.518-16.024 3.476 4.062 3.611 9.435 8.441 12.774 1.851 1.626 4.332 1.939 6.408 2.798-2.3.226-4.422-.722-6.724-.858-7.765-.947-16.656.047-22.345-6.271 2.572 4.512 7.132 8.439 11.916 9.974 9.03 3.429 17.2-1.626 25.822-2.393M15.278 41.449c1.31-2.617 3.838-5.1 6.048-6.951 5.102-3.294 9.662-8.532 9.842-14.398-2.71 6.95-11.646 7.854-13.858 15.256h-.226c3.294-6.138 1.444-14.806 7.718-19.364-3.294.948-6.092 3.387-7.808 6.274-3.656 5.37-.679 12.82-1.716 19.183"/><path d="M25.435 32.557c-2.935 5.372-10.066 8.485-11.374 14.852 0 1.038-.316 2.03-.542 3.024l-.227-.227.36-4.107c1.22-7.358-3.068-14.94.722-21.217-2.615 3.116-4.376 6.862-5.279 10.834-1.761 8.307 3.25 14.717 4.334 22.299 1.443-9.523 11.464-15.527 12.006-25.458m-.407-8.35c5.778-4.019 7.267-10.564 12.864-14.714-4.288 1.714-8.936 3.111-12.142 7.13-2.484 3.25-3.25 7.132-4.515 10.834l3.793-3.25z"/><path d="M16.994 75.574c-.498-2.122-.406-4.786-.09-6.952 1.896-7.537 4.874-14.806 4.422-23.155-1.126 6.004-6.498 10.246-7.13 16.43-.406 2.528.224 5.01.54 7.269-.586-1.129-1.128-2.438-1.219-3.883-.901-8.125-7.447-14.085-6.047-22.885-2.348 5.416-2.212 12.592-.452 18.235 1.534 5.823 7.088 9.886 9.976 14.941m137.545 43.984h180.182v.814H154.539zm.542-115.376h179.958v.813H155.081zm6.448 26.687c4.411 0 6.472-2.412 6.472-5.834v-8.162h-3.586v8.061c0 1.628-.99 2.802-2.886 2.802-1.918 0-2.906-1.174-2.906-2.802v-8.061h-3.608v8.185c0 3.38 2.102 5.811 6.514 5.811m15.586-8.203l5.813 7.956h3.422V16.874h-3.567v7.564l-5.564-7.564h-3.65v13.748h3.546zm14.804-5.792h3.546v13.748h-3.546zm8.328 3.092h3.854v10.656h3.545V19.966h3.834v-3.092h-11.233zm26.098 0v-3.092h-10.08v13.748h10.08V27.53h-6.534v-2.328h6.389V22.11h-6.389v-2.144zm10.926-3.091h-5.772v13.748h5.792c4.309 0 7.42-2.618 7.42-6.887 0-4.265-3.111-6.861-7.44-6.861m0 10.655h-2.227v-7.563h2.246c2.517 0 3.794 1.647 3.794 3.77.001 2.041-1.4 3.793-3.813 3.793m-78.71 20.647l5.812 7.956h3.422V42.385h-3.566v7.564l-5.564-7.564h-3.65v13.748h3.546zm17.36 7.956l.68-1.978h5.42l.68 1.978h4.021l-5.174-13.748h-4.473l-5.176 13.748h4.022zm3.399-10.244l1.732 5.174h-3.484l1.752-5.174zm9.444-.412h3.854v10.656h3.546V45.477h3.834v-3.092h-11.234zm16.016-3.091h3.546v13.748h-3.546zm8.413 6.883c0 4.185 3.154 7.112 7.358 7.112 4.206 0 7.338-2.928 7.338-7.112s-3.132-7.109-7.338-7.109c-4.203-.001-7.358 2.925-7.358 7.109m7.359-3.978c2.268 0 3.731 1.731 3.731 3.978 0 2.227-1.464 3.979-3.731 3.979s-3.752-1.752-3.752-3.979c0-2.247 1.485-3.978 3.752-3.978m21.44 4.658l-5.566-7.563h-3.648v13.748h3.544v-7.956l5.814 7.956h3.422V42.386h-3.566zm14.431 3.298a6.23 6.23 0 0 1-4.412-1.813l-1.874 2.762c1.38 1.298 3.318 2.186 6.101 2.186 3.689 0 5.731-1.836 5.731-4.596 0-5.114-7.771-3.836-7.771-5.526 0-.596.453-.947 1.483-.947 1.36 0 2.866.474 4.021 1.443l1.938-2.66c-1.464-1.256-3.382-1.916-5.586-1.916-3.523 0-5.462 2.061-5.462 4.37 0 5.296 7.771 3.792 7.771 5.606-.002.679-.744 1.091-1.94 1.091M168.229 74.76c0-4.267-3.113-6.864-7.441-6.864h-5.772v13.748h5.792c4.307 0 7.421-2.619 7.421-6.884m-9.668 3.792v-7.564h2.246c2.517 0 3.794 1.648 3.794 3.772 0 2.04-1.401 3.792-3.813 3.792h-2.227zm24.614-7.566v-3.091h-10.08v13.748h10.08v-3.092h-6.534v-2.328h6.39v-3.092h-6.39v-2.145zm8.866 10.658h4.472l5.174-13.748h-4.02l-3.38 9.914-3.4-9.914h-4.02zm13.751 0h10.08v-3.092h-6.534v-2.328h6.39v-3.092h-6.39v-2.145h6.534v-3.091h-10.08zm18.719-13.748h-3.546v13.748h9.069v-3.092h-5.523zm9.238 6.884c0 4.184 3.151 7.111 7.355 7.111 4.206 0 7.341-2.928 7.341-7.111 0-4.185-3.135-7.112-7.341-7.112-4.204 0-7.355 2.928-7.355 7.112m11.088 0c0 2.226-1.462 3.978-3.732 3.978-2.266 0-3.75-1.752-3.75-3.978 0-2.246 1.484-3.979 3.75-3.979 2.27.001 3.732 1.733 3.732 3.979m8.494-6.884v13.748h3.546v-4.616h3.341c3.092 0 4.781-2.082 4.781-4.557 0-2.493-1.689-4.575-4.781-4.575h-6.887zm8.061 4.575c0 .929-.762 1.465-1.71 1.465h-2.805v-2.948h2.805c.948-.001 1.71.535 1.71 1.483m23.891 9.173V67.896h-4.926l-2.866 7.583-2.884-7.583h-4.927v13.748h3.546v-9.09l3.482 9.09h1.567l3.464-9.09v9.09zm15.649-10.658v-3.091h-10.08v13.748h10.08v-3.092h-6.534v-2.328h6.39v-3.092h-6.39v-2.145zm14.513 10.658h3.422V67.896h-3.565v7.564l-5.565-7.564h-3.649v13.748h3.546v-7.956zm8.208-10.658h3.854v10.657h3.546V70.986h3.834v-3.091h-11.234zm-161.897 36.416c2.599 0 4.618-1.052 6.08-2.681V99.26H161.2v3.112h3.092v1.072c-.496.412-1.526.824-2.536.824-2.246 0-3.834-1.73-3.834-3.979 0-2.266 1.588-3.979 3.834-3.979 1.34 0 2.391.847 2.906 1.753l2.968-1.546c-.948-1.711-2.802-3.339-5.874-3.339-4.102 0-7.439 2.74-7.439 7.11s3.337 7.114 7.439 7.114m11.257-.249h3.546v-4.615h1.813l2.309 4.615h4.062l-2.804-5.048c1.298-.454 2.742-1.731 2.742-4.124 0-2.556-1.732-4.576-4.784-4.576h-6.884v13.748zm3.546-10.655h2.804c.948 0 1.71.516 1.71 1.464 0 .968-.762 1.484-1.71 1.484h-2.804v-2.948zm19.831-3.319c-4.204 0-7.357 2.928-7.357 7.112s3.153 7.112 7.357 7.112c4.206 0 7.338-2.929 7.338-7.112 0-4.185-3.132-7.112-7.338-7.112m0 11.09c-2.266 0-3.752-1.752-3.752-3.978 0-2.246 1.486-3.979 3.752-3.979 2.269 0 3.732 1.732 3.732 3.979 0 2.226-1.464 3.978-3.732 3.978m12.226-10.863v8.183c0 3.38 2.104 5.813 6.514 5.813 4.412 0 6.472-2.412 6.472-5.834v-8.162h-3.586v8.059c0 1.63-.989 2.804-2.886 2.804-1.918 0-2.906-1.174-2.906-2.804v-8.059h-3.608zm18.554 13.747h3.546v-4.615h3.34c3.092 0 4.782-2.082 4.782-4.557 0-2.494-1.69-4.576-4.782-4.576h-6.886v13.748zm3.546-10.655h2.804c.948 0 1.71.536 1.71 1.483 0 .929-.762 1.465-1.71 1.465h-2.804v-2.948z"/></g></svg>